:FULLY-SPECIFIED
:FORCE-ALL-JOINTS-BE-3DOF
:DEGREES
476
root 3.63454 16.327 -7.14205 5.49073 60.1386 -6.50445
lfemur -40.0252 -0.397195 -22.4876
ltibia 49.0792 -0 0
lfoot -20.4542 -0.75081 -0.0104855
ltoes 17.1301 -0 0
rfemur -23.0319 0.156968 10.312
rtibia 70.6583 -0 0
rfoot 25.7451 6.44528 -0.538984
rtoes -29.3145 0 0
lowerback 1.55092 -0.183519 1.75977
upperback -0.60219 -0.185974 1.09196
thorax -1.49034 -0.101015 0.141626
lowerneck -8.47439 -6.76522 0.616841
upperneck 3.85048 -9.18476 1.45005
head 2.73666 -4.50132 -0.0902023
lclavicle 1.07344e-14 -1.59028e-15 0
lhumerus -48.9739 -27.2103 108.327
lradius 55.3281 -0 0
lwrist 4.33495 0 0
lhand -9.44414 -5.97304 0.2396
lfingers 7.12502 -0 0
lthumb 16.5128 23.2486 0.218968
rclavicle 1.07344e-14 -1.59028e-15 0
rhumerus -54.4261 1.44915 -84.2363
rradius 61.2854 -0 0
rwrist 15.5337 0 0
rhand -29.6677 -27.1428 -0.098513
rfingers 7.12502 -0 0
rthumb -2.99265 -57.1889 -0.112332
477
root 3.71229 16.3446 -7.10022 5.70415 61.2245 -5.89892
lfemur -39.051 -1.76852 -22.6503
ltibia 48.597 -0 0
lfoot -20.4894 -0.708913 -0.0102059
ltoes 17.2317 -0 0
rfemur -25.189 0.192666 10.0521
rtibia 73.1123 -0 0
rfoot 24.7063 7.77735 -0.42274
rtoes -27.8 0 0
lowerback 1.76222 -0.192004 1.45674
upperback -0.544001 -0.202778 0.98976
thorax -1.5479 -0.107665 0.206519
lowerneck -8.46691 -6.91125 0.474483
upperneck 3.90906 -9.37057 1.5335
head 2.76796 -4.59227 -0.0523787
lclavicle 1.07344e-14 -1.59028e-15 0
lhumerus -49.0477 -27.5475 108.55
lradius 55.6394 -0 0
lwrist 4.61006 0 0
lhand -8.21019 -5.27829 0.193309
lfingers 7.12502 -0 0
lthumb 17.7015 23.8583 0.177495
rclavicle 1.07344e-14 -1.59028e-15 0
rhumerus -54.0655 2.17467 -84.8437
rradius 61.502 -0 0
rwrist 16.0752 0 0
rhand -29.2214 -26.6731 -0.0917325
rfingers 7.12502 -0 0
rthumb -2.56189 -56.7192 -0.104682
478
root 3.78938 16.3613 -7.05692 5.91211 62.3205 -5.31533
lfemur -38.1085 -3.0821 -22.8116
ltibia 48.1476 -0 0
lfoot -20.5372 -0.697954 -0.00910754
ltoes 17.3273 -0 0
rfemur -27.2889 0.24282 9.82279
rtibia 75.3376 -0 0
rfoot 23.704 8.99227 -0.2973
rtoes -26.3753 0 0
lowerback 1.9685 -0.200525 1.17009
upperback -0.488138 -0.220294 0.89783
thorax -1.60504 -0.114745 0.273023
lowerneck -8.46253 -7.05486 0.335916
upperneck 3.98049 -9.55354 1.60973
head 2.80409 -4.68183 -0.0179911
lclavicle 1.07344e-14 -1.59028e-15 0
lhumerus -49.1144 -27.8759 108.786
lradius 55.9218 -0 0
lwrist 4.85445 0 0
lhand -7.02109 -4.62403 0.141343
lfingers 7.12502 -0 0
lthumb 18.8467 24.4258 0.130559
rclavicle 1.07344e-14 -1.59028e-15 0
rhumerus -53.6828 2.97785 -85.4577
rradius 61.8138 -0 0
rwrist 16.6177 0 0
rhand -28.7 -26.2052 -0.0791498
rfingers 7.12502 -0 0
rthumb -2.05873 -56.2456 -0.0903105
479
root 3.86573 16.377 -7.01174 6.10734 63.4345 -4.76468
lfemur -37.207 -4.32212 -22.9713
ltibia 47.7357 -0 0
lfoot -20.6 -0.721547 -0.00708202
ltoes 17.4231 -0 0
rfemur -29.303 0.317131 9.63026
rtibia 77.2825 -0 0
rfoot 22.7712 10.0662 -0.175346
rtoes -25.0639 0 0
lowerback 2.16513 -0.209969 0.904179
upperback -0.436236 -0.239386 0.818875
thorax -1.66092 -0.122698 0.341544
lowerneck -8.46245 -7.19638 0.201831
upperneck 4.06798 -9.73416 1.677
head 2.84619 -4.77022 0.0122177
lclavicle 1.07344e-14 -1.59028e-15 0
lhumerus -49.1757 -28.1907 109.037
lradius 56.1675 -0 0
lwrist 5.05945 0 0
lhand -5.89092 -4.02452 0.0882225
lfingers 7.12502 -0 0
lthumb 19.9348 24.9371 0.082164
rclavicle 1.07344e-14 -1.59028e-15 0
rhumerus -53.2813 3.86417 -86.0705
rradius 62.2321 -0 0
rwrist 17.1565 0 0
rhand -28.0974 -25.7459 -0.0601514
rfingers 7.12502 -0 0
rthumb -1.47752 -55.7741 -0.0685507
480
root 3.94128 16.3919 -6.96423 6.28134 64.5742 -4.25911
lfemur -36.356 -5.47273 -23.129
ltibia 47.3659 -0 0
lfoot -20.6799 -0.783305 -0.00405527
ltoes 17.5251 -0 0
rfemur -31.2026 0.425796 9.48024
rtibia 78.8953 -0 0
rfoot 21.9405 10.9758 -0.0711612
rtoes -23.8888 0 0
lowerback 2.34751 -0.221286 0.663381
upperback -0.389927 -0.260925 0.755597
thorax -1.71469 -0.131967 0.41249
lowerneck -8.46788 -7.33615 0.0729238
upperneck 4.17469 -9.91292 1.73354
head 2.8954 -4.85769 0.0375013
lclavicle 1.07344e-14 -1.59028e-15 0
lhumerus -49.2327 -28.487 109.307
lradius 56.3688 -0 0
lwrist 5.21642 0 0
lhand -4.83364 -3.49388 0.039181
lfingers 7.12502 -0 0
lthumb 20.9522 25.3784 0.036943
rclavicle 1.07344e-14 -1.59028e-15 0
rhumerus -52.8638 4.83898 -86.6743
rradius 62.7681 -0 0
rwrist 17.6871 0 0
rhand -27.4078 -25.3023 -0.0340443
rfingers 7.12502 -0 0
rthumb -0.812551 -55.3106 -0.0387046
481
root 4.01594 16.4059 -6.91395 6.42394 65.7477 -3.81247
lfemur -35.5655 -6.51815 -23.2832
ltibia 47.0428 0 0
lfoot -20.7791 -0.886843 0
ltoes 17.6395 0 0
rfemur -32.9589 0.579337 9.3781
rtibia 80.1245 0 0
rfoot 21.2442 11.698 0
rtoes -22.8736 0 0
lowerback 2.51103 -0.23548 0.452055
upperback -0.350846 -0.285786 0.710696
thorax -1.76552 -0.142998 0.48627
lowerneck -8.48002 -7.4745 -0.0501023
upperneck 4.30385 -10.0903 1.77756
head 2.95284 -4.94445 0.0571099
lclavicle -1.58003e-14 9.74045e-15 0
lhumerus -49.2871 -28.7601 109.598
lradius 56.5177 0 0
lwrist 5.31669 0 0
lhand -3.86313 -3.04602 0
lfingers 7.12502 0 0
lthumb 21.8854 25.7362 0
rclavicle -1.58003e-14 9.74045e-15 0
rhumerus -52.4331 5.90746 -87.2613
rradius 63.433 0 0
rwrist 18.2047 0 0
rhand -26.6253 -24.8811 0
rfingers 7.12502 0 0
rthumb -0.0581423 -774.861 0
482
root 4.08989 16.4192 -6.86127 6.52967 66.9386 -3.42441
lfemur -34.8191 -7.50423 -23.4078
ltibia 46.7507 -0 0
lfoot -20.8971 -1.06301 0.00572525
ltoes 17.7786 -0 0
rfemur -34.6612 0.780966 9.33477
rtibia 81.0233 -0 0
rfoot 20.5886 12.2423 0.0468882
rtoes -21.9813 0 0
lowerback 2.66173 -0.253904 0.262655
upperback -0.317883 -0.316264 0.67785
thorax -1.81529 -0.15683 0.560819
lowerneck -8.49985 -7.60547 -0.164061
upperneck 4.4517 -10.2585 1.8062
head 3.01815 -5.02676 0.0703891
lclavicle -1.58003e-14 9.74045e-15 0
lhumerus -49.3359 -29.0223 109.913
lradius 56.617 -0 0
lwrist 5.35863 0 0
lhand -2.93661 -2.65134 -0.0272431
lfingers 7.12502 -0 0
lthumb 22.7754 26.0336 -0.0272786
rclavicle -1.58003e-14 9.74045e-15 0
rhumerus -52.005 7.12053 -87.902
rradius 64.212 -0 0
rwrist 18.8553 0 0
rhand -25.7538 -24.4568 0.036975
rfingers 7.12502 -0 0
rthumb 0.784467 -54.4147 0.0337464
483
root 4.16333 16.4317 -6.80695 6.60004 68.126 -3.08469
lfemur -34.0949 -8.48395 -23.4823
ltibia 46.4726 -0 0
lfoot -21.0308 -1.33027 0.0132359
ltoes 17.9441 -0 0
rfemur -36.4079 1.02457 9.3495
rtibia 81.6904 -0 0
rfoot 19.867 12.6425 0.0882746
rtoes -21.1581 0 0
lowerback 2.80938 -0.276573 0.0845909
upperback -0.288335 -0.353058 0.649298
thorax -1.86636 -0.173708 0.634154
lowerneck -8.52677 -7.72433 -0.267392
upperneck 4.61188 -10.4113 1.81936
head 3.08976 -5.10159 0.0777146
lclavicle -1.58003e-14 9.74045e-15 0
lhumerus -49.3754 -29.2882 110.251
lradius 56.6776 -0 0
lwrist 5.35105 0 0
lhand -2.00647 -2.27163 -0.0455424
lfingers 7.12502 -0 0
lthumb 23.6678 26.3036 -0.0475452
rclavicle -1.58003e-14 9.74045e-15 0
rhumerus -51.5934 8.51056 -88.6561
rradius 65.0813 -0 0
rwrist 19.751 0 0
rhand -24.8031 -24.0026 0.0705476
rfingers 7.12502 -0 0
rthumb 1.70774 -53.9572 0.0499953
484
root 4.23625 16.4434 -6.75117 6.63357 69.3114 -2.79411
lfemur -33.3941 -9.45204 -23.5133
ltibia 46.2116 -0 0
lfoot -21.1789 -1.67364 0.0217329
ltoes 18.1266 -0 0
rfemur -38.1842 1.30639 9.41026
rtibia 82.1424 -0 0
rfoot 19.0917 12.9128 0.12341
rtoes -20.4015 0 0
lowerback 2.95498 -0.302503 -0.0823383
upperback -0.261454 -0.394643 0.625587
thorax -1.91859 -0.192889 0.706807
lowerneck -8.5596 -7.83323 -0.36184
upperneck 4.78369 -10.5514 1.81939
head 3.16701 -5.17027 0.0798792
lclavicle -1.58003e-14 9.74045e-15 0
lhumerus -49.406 -29.5565 110.609
lradius 56.7044 -0 0
lwrist 5.30093 0 0
lhand -1.07929 -1.90787 -0.0563321
lfingers 7.12502 -0 0
lthumb 24.5565 26.5476 -0.0614909
rclavicle -1.58003e-14 9.74045e-15 0
rhumerus -51.1974 10.0545 -89.4997
rradius 66.0385 -0 0
rwrist 20.837 0 0
rhand -23.7756 -23.5236 0.0997573
rfingers 7.12502 -0 0
rthumb 2.70798 -53.4885 0.0515258
